<?xml version="1.0" encoding="utf-8"?>
<!-- Generator: Adobe Illustrator 25.0.1, SVG Export Plug-In . SVG Version: 6.00 Build 0)  -->
<svg version="1.1" id="Layer_1" xmlns="http://www.w3.org/2000/svg" xmlns:xlink="http://www.w3.org/1999/xlink" x="0px" y="0px"
	 viewBox="0 0 329.3 134.9" style="enable-background:new 0 0 329.3 134.9;" xml:space="preserve">
<style type="text/css">
	.st0{fill:#231F20;}
	.st1{fill:#929497;}
</style>
<g>
	<g>
		<polygon class="st0" points="47.2,15.5 36.6,15.5 11.4,41.3 11.4,15.5 2.9,15.5 2.9,71.6 11.4,71.6 11.4,44.7 37.7,71.6 
			48.4,71.6 20.3,43 		"/>
		<path class="st0" d="M71.5,14.4c-7.7,0-14.1,2.7-19.2,8.1c-5.1,5.4-7.7,12.4-7.7,21c0,8.6,2.6,15.6,7.7,21
			c5.1,5.4,11.5,8.1,19.2,8.1c7.7,0,14.1-2.7,19.2-8.1c5.1-5.4,7.7-12.4,7.7-21c0-8.6-2.6-15.6-7.7-21
			C85.6,17.1,79.2,14.4,71.5,14.4z M84.6,58.9c-3.6,4-7.9,5.9-13.2,5.9c-5.2,0-9.6-2-13.2-5.9c-3.6-4-5.3-9.1-5.3-15.4
			s1.8-11.4,5.3-15.4c3.6-4,7.9-5.9,13.2-5.9c5.2,0,9.6,2,13.2,5.9c3.5,4,5.3,9.1,5.3,15.4S88.2,54.9,84.6,58.9z"/>
		<path class="st0" d="M149.8,4.8h-8.4v10.7h-9h0h-9.5c-2.8,0-5,0.4-6.4,1.3c-1.5,0.9-2.9,2.3-4.2,4.3h-0.6l-1.1-5.6h-7.3v56.1h8.4
			V35.7c0-4,1.1-7,3.2-9.1c2.1-2.1,5.2-3.2,9.1-3.2h8.4h0h9V62c0,2.9,0.9,5.2,2.7,7c1.8,1.7,4.3,2.6,7.4,2.6h11.2v-7.8h-9.5
			c-2.2,0-3.4-1.1-3.4-3.4v-37h12.9v-7.8h-12.9V4.8z"/>
		<path class="st0" d="M192,14.4c-7.7,0-14.1,2.7-19.2,8.1c-5.1,5.4-7.7,12.4-7.7,21c0,8.6,2.6,15.6,7.7,21
			c5.1,5.4,11.5,8.1,19.2,8.1c5.8,0,10.8-1.5,15-4.4c4.1-2.9,7.2-7.1,9.1-12.4h-9c-1.4,2.8-3.5,5-6.1,6.6c-2.7,1.6-5.7,2.4-9,2.4
			c-4.8,0-8.9-1.6-12.4-4.8c-3.5-3.2-5.5-7.4-6.1-12.6h43.7l0.2-1.3c0.2-2,0.3-3.6,0.3-4.8c0-7.8-2.4-14.2-7.3-19.3
			C205.6,16.9,199.4,14.4,192,14.4z M173.5,39.6c0.6-5.2,2.6-9.3,5.9-12.6c3.4-3.2,7.6-4.8,12.6-4.8c4.8,0,8.8,1.6,12.1,4.9
			c3.3,3.3,5,7.4,5.3,12.5H173.5z"/>
		<path class="st0" d="M261.5,15.5L245.8,62h-2.2l-17.4-46.5h-9l23,60.6l-2.2,6.7c-0.7,2.2-2.1,3.4-3.9,3.4h-10.7V94h11.2
			c3,0,5.3-0.6,6.8-1.9c1.6-1.2,2.8-3.2,3.8-6l25.2-70.6H261.5z"/>
		<path class="st0" d="M310.1,20c-3.9-3.7-9.2-5.6-16-5.6c-6.7,0-12,1.7-16,5.1c-4,3.4-6.2,7.5-6.4,12.3h8.4c0.3-2.7,1.7-5,4.2-6.8
			c2.5-1.8,5.8-2.7,9.8-2.7c4.3,0,7.6,1.2,9.9,3.5c2.4,2.4,3.5,5.7,3.5,9.9v1.7h-15.1c-7.6,0-13.2,1.6-16.9,4.8
			c-3.7,3.2-5.5,7.6-5.5,13.2c0,5.2,1.8,9.3,5.4,12.6c3.6,3.2,8.4,4.8,14.2,4.8c5.5,0,9.9-1.3,13.3-3.9c1.6-1.1,3-2.4,4-3.9h0.6
			l1.1,6.7h7.3V35.7C315.9,29,314,23.7,310.1,20z M307.5,47.5c0,5.4-1.6,9.6-4.8,12.7c-3.2,3.1-7.6,4.7-13.2,4.7
			c-3.6,0-6.4-0.9-8.3-2.6c-1.9-1.7-2.9-4-2.9-7c0-3,1.1-5.4,3.4-7.3c2.3-1.9,5.8-2.8,10.6-2.8h15.1V47.5z"/>
	</g>
	<g>
		<path class="st1" d="M136.8,96.4c0.7-1.4,1.8-3.2,3.2-5.4c2-3,3-4.9,3-6c0-0.9-0.4-1.5-1.4-1.9c-1.4-0.4-3-0.7-4.9-0.7h-0.1
			c-4.9,0-10,1.6-15.2,4.7c-1.7,1-3.6,2.4-5.6,4c-1.4,1.2-3.1,2.8-5,4.9c-4,4.8-6,8.9-6,12.2v0.3c0,1.2,0.4,2.4,1.2,3.4
			c1,1.1,3.7,1.7,8.2,1.7c1.5,0,3-0.1,4.5-0.1c4.1-0.2,6.5-0.3,7.3-0.3h0.3c1,0,2,0.1,3,0.2c1.8,0.3,2.7,0.9,2.7,1.7
			c0,0.7-0.3,1.7-0.9,2.8c-0.7,1.7-2.4,4.1-5,7.2c-3.6,4-6.3,6-8,6c0,0-0.1-0.1-0.1-0.4v-0.3c0-0.8,0.4-2.5,1.1-4.9l2.5-7.5l0-0.2
			l0-0.1c-0.1-0.2-0.4-0.4-0.7-0.4h-0.1c-0.3,0-0.7,0.1-0.9,0.8c-2.3,5.9-3.4,9.8-3.4,11.8c0,0.4,0.1,0.8,0.2,1.2
			c0.3,0.7,0.7,1,1.4,1c2.1,0,4.9-1.9,8.6-5.8c1.8-2,3.2-3.8,4.2-5.3c1.6-2.5,2.5-4.6,2.6-6.1c0-0.2-0.1-0.6-0.3-1
			c-0.8-1.3-3.1-2-7-2c-0.3,0-0.7,0-1.2,0c-4.5,0.3-8,0.4-10.4,0.4c-3.6,0-5.8-0.3-6.6-0.8c-0.8-0.7-1.2-1.8-1.2-3.2
			c0-2.7,1.4-6,4.3-9.8c0.7-1,2-2.5,4-4.6c1.9-1.8,3.5-3.1,4.9-4.1c5.9-4.1,11.5-6.2,16.6-6.2c1.2,0,2.1,0.1,2.7,0.2
			c1.6,0.2,1.6,0.8,1.6,1c0,0.5-0.2,1-0.5,1.6l0,0.1c0,0.2-0.4,0.9-2.6,4.4c-3.4,5-5.2,9.3-5.2,12.8c0,0.1,0,0.3,0,0.5
			c0,0.5,0.3,0.8,0.8,0.8h0.4c0.2,0,0.4-0.1,0.7-0.3l0.1-0.1v-0.1c0-0.3,0-0.5,0-0.8C134.7,101.6,135.4,99.1,136.8,96.4z"/>
		<path class="st1" d="M197.1,107.8L197.1,107.8c0.2,0,0.2,0,0.3,0c0.2,0,0.4-0.1,0.6-0.2c0.4-0.3,0.7-0.6,0.7-1l0-0.1
			c0-0.1,0-0.2,0-0.4c-0.1-0.5-0.4-0.8-0.9-0.9l-0.1,0c-0.2,0-0.3,0-0.6,0c-0.5,0.2-0.8,0.5-0.9,1l0,0.1c0,0.2,0,0.3,0,0.5
			C196.4,107.5,196.8,107.7,197.1,107.8z"/>
		<path class="st1" d="M240,109.1c-1.5,0-3.7,0.3-6.7,0.9c0-0.4-0.1-0.9-0.2-1.4c-0.5-1.7-1.6-2.6-3.4-2.6c-1.9,0-4.4,1.3-7.7,3.8
			c-0.2-1.5-0.8-2.3-1.7-2.3c-0.6,0-1.3,0.5-2.5,1.7c0,0,0,0,0,0.1c0,0-0.1,0-0.1,0l-0.1,0l0,0.1c-0.1,0.2-0.3,0.5-0.4,0.7
			c-0.4,0.4-0.7,0.9-1,1.2c-1.8,1.8-3.4,2.7-4.6,2.7c-1.2,0-2-1-2.6-3c-0.4-1.7-1-2.5-1.9-2.5c-0.4,0-0.8,0.2-1.2,0.5
			c0.2-0.8,0.4-1.5,0.5-2.1c0-0.5-0.8-0.6-1-0.6l0,0c-0.2,0-0.5,0.1-0.7,0.2l-0.1,0l0,0.1c-0.1,0.2-0.4,0.6-1.5,2.1
			c-4,5-5.8,6.1-6.7,6.1H196c-0.1,0-0.4,0-0.5-0.8v-0.3c0-0.7,0.3-1.6,0.9-2.9l0.9-1.8l0-0.2c0-0.5-0.7-0.5-0.9-0.6h-0.1
			c-0.2,0-0.4,0.1-0.7,0.2l-0.1,0.1c-0.1,0.2-0.2,0.4-0.4,0.6h-0.3c-1.8,0-3.7,0.3-5.6,0.8c0.2-0.8,0.3-1.4,0.3-1.9
			c0-1.4-0.7-2.2-2.1-2.2h-0.2c-1.4,0-2.9,1.2-4.7,3.5c-1.5,2.2-3,4.8-4.4,7.8c1.9-5.8,2.8-9.2,2.8-10.3l0-0.1c0-0.1,0-0.1,0-0.2
			v-0.2l0-0.1c-0.1-0.2-0.4-0.4-0.8-0.4c-0.3,0-0.6,0.2-0.9,0.5l-0.1,0.1v0.3c0,0.5-0.1,1.4-0.4,2.4h-0.3c-1.8,0-3.7,0.3-5.6,0.8
			c0.2-0.8,0.3-1.4,0.3-1.9c0-1.4-0.7-2.2-2.1-2.2h-0.2c-1.4,0-2.9,1.2-4.7,3.5c-1.5,2.2-3,4.8-4.4,7.8c1.9-5.8,2.8-9.2,2.8-10.3
			l0-0.1c0-0.1,0-0.1,0-0.2v-0.2l0-0.1c-0.1-0.2-0.4-0.4-0.8-0.4c-0.3,0-0.6,0.2-0.9,0.5l-0.1,0.1v0.3c0,0.6-0.1,1.4-0.4,2.5
			c-1,0.4-2.4,0.6-4.1,0.7c0-0.2,0-0.4,0-0.5c-0.3-1.2-1.1-1.9-2.5-1.9h-0.3c-1.3,0-1.7,0.8-1.9,1.4c0,0,0,0.1-0.2,0.3
			c-0.1,0.1-0.5,0.4-1.5,1.5c-3.5,3.2-5,3.9-5.6,3.9h-0.1c-0.1,0-0.1-0.4-0.1-0.5c0-0.5,0.2-1.2,0.5-2.2c0.8-2.3,1.2-3.8,1.2-4.5
			c0-0.8-0.5-1.3-1.4-1.4c-0.9,0-2.2,0.8-3.7,2.5c-1.3,1.4-2.5,2.8-3.5,4.2c0.4-1,0.9-2.1,1.4-3.3c4.5-9.8,6.6-15.4,6.6-17.2
			c0-0.4-0.6-0.6-0.9-0.6h-0.1c-0.3,0-0.6,0.1-0.8,0.4l-0.1,0.1v0.1c0,0.2-0.1,0.9-0.6,2.4c-0.7,2.4-1.6,4.8-2.7,7.2
			c-2.4,5.6-4,9.4-4.7,11.2c-1.9,5-1.9,5.7-1.9,5.9v0.1l0,0.1c0.2,0.2,0.4,0.4,0.8,0.4c0.3,0,0.5-0.1,0.7-0.2l0.1-0.1
			c0.3-0.6,0.6-1.3,1.1-2.1c1.4-2.3,3.3-4.8,5.6-7.4c0.8-0.8,1.5-1.6,2.3-2.2c0,0.4-0.2,1.1-0.4,2.1c-0.7,2.2-1.1,3.7-1.1,4.4v0.1
			c0,0.3,0,0.6,0.1,0.8c0.3,0.6,0.9,0.9,1.7,0.9c1.5,0,3.5-1.1,6-3.4c0,0.3-0.1,0.6-0.1,1c0,0.4,0.1,0.8,0.2,1.3
			c0.3,0.8,0.9,1.3,1.8,1.3h0.3c0.6,0,1.4-0.5,2.3-1.5c0.9-1.3,1.5-2.4,1.6-3.4c0.9,0,2-0.1,3.1-0.2c0.3-0.1,0.5-0.1,0.8-0.2
			c-0.5,1.8-1.2,4-2.1,6.7c-1.9,5.6-2.8,8.9-2.8,10v0.2c0,0.8,0.5,1,0.8,1c0.4,0,0.8-0.4,1.3-1.3c1.8-4.6,3.3-8.2,4.5-10.7
			c3-6.4,5.5-9.7,7.4-9.7c0.1,0,0.4,0,0.4,0.8c0,0.9-0.2,2-0.7,3.1l-1.9,1.1c-2.3,1.7-3.4,3.1-3.4,4.4c0,0.2,0,0.3,0.1,0.4
			c0.3,0.9,1,1.1,1.4,1.1h0.1c0.5,0,1.1-0.3,1.8-0.9c1.4-1.5,2.6-3.4,3.5-5.5c1.8-0.7,3.9-1.1,6.1-1.1c-0.5,1.8-1.2,4.2-2.2,7.1
			c-1.9,5.6-2.8,8.9-2.8,10v0.2c0,0.8,0.5,1,0.8,1c0.4,0,0.8-0.4,1.3-1.3c1.8-4.6,3.3-8.2,4.5-10.7c3-6.4,5.5-9.7,7.4-9.7
			c0.1,0,0.4,0,0.4,0.8c0,0.9-0.2,2-0.7,3.1l-1.9,1.1c-2.3,1.7-3.4,3.1-3.4,4.4c0,0.2,0,0.3,0.1,0.4c0.3,0.9,1,1.1,1.4,1.1h0.1
			c0.5,0,1.1-0.3,1.8-0.9c1.4-1.5,2.6-3.4,3.5-5.5c1.7-0.7,3.7-1.1,5.8-1.1c-0.6,1.2-0.9,2.3-0.9,3.2v0.3c0,0.1,0,0.3,0.1,0.7
			c0.4,1,1.1,1.5,2.2,1.5c2,0,4.5-1.9,7.6-5.7c-1.1,3.6-1.7,6-1.7,7.2c0,0.2,0.1,0.6,0.8,0.7l0.2,0c0.1,0,0.4,0,0.5-0.2
			c0.2-0.1,0.5-0.6,0.9-1.9c1.6-4.5,2.3-5.8,2.6-6.1c0.1,0.2,0.2,0.5,0.3,0.8c0.7,3,2.1,4.5,4.3,4.5h0.1c1,0,2.1-0.3,3.2-0.9
			c0,0,0,0,0,0.1v0.2l0,0.1c0.1,0.3,0.4,0.8,1.2,0.8c1.1,0,2.7-0.9,5-2.8c0.1,0,0.3,0.1,0.4,0.1c0.4,0,0.7-0.1,1-0.4l0.1-0.1V112
			c0-0.1,0-0.3-0.1-0.6c3.5-2.9,6-4.3,7.3-4.3c0.4,0,1.7,0,1.7,3.3v0.1c-5.7,1.6-10.7,4.2-14.8,7.8c-4,3.7-6,7.2-6,10.3
			c0,1.2,0.3,2.3,1,3.2c1.1,1.4,2.5,2,4.2,2h0.5c1.8,0,3.9-0.8,6-2.3c0.5-0.3,1.5-1.2,3.1-2.7c1.3-1.6,2.4-3,3.2-4.2
			c1.3-2,2.4-4.4,3.5-7.2c0.9-2.7,1.3-4.7,1.3-6.2c0.3-0.1,0.4-0.1,0.5-0.1c2.7-0.5,4.4-0.7,5.1-0.7c1.3,0,1.8-0.2,1.8-0.6
			C240.7,109.5,240.6,109.2,240,109.1z M156,112.4c-1,2.2-1.7,2.6-2,2.6c-0.1,0-0.2-0.3-0.2-0.8v-0.2c0-1,0.2-2.1,0.7-3.3
			c0.7,0.2,1.4,0.4,1.9,0.4C156.3,111.6,156.1,112,156,112.4z M155.2,109.6L155.2,109.6l0-0.4l0-0.1c0,0-0.1-0.1-0.1-0.1
			c0.1-0.4,0.3-0.4,0.4-0.4c0.2,0,0.3,0.1,0.4,0.1c0.4,0.2,0.6,0.6,0.6,1.2C155.6,109.8,155.3,109.6,155.2,109.6z M168.4,115.1
			c-0.8,1.4-1.2,1.7-1.4,1.7l-0.1,0c0,0-0.1-0.1-0.1-0.4c0-0.6,0.4-1.3,1.2-2.2c0.6-0.6,1.1-1,1.6-1.4
			C169.3,113.5,168.9,114.3,168.4,115.1z M184.8,115.1c-0.8,1.4-1.2,1.7-1.4,1.7l-0.1,0c0,0-0.1-0.1-0.1-0.4c0-0.6,0.4-1.3,1.2-2.2
			c0.6-0.6,1.1-1,1.6-1.4C185.7,113.5,185.3,114.3,184.8,115.1z M216.6,114.1c0.1-0.5,0.6-1.3,1.7-2.9c0.1-0.1,0.2-0.2,0.3-0.4
			c0.2-0.3,0.4-0.5,0.6-0.8c0.4-0.5,0.6-0.7,0.8-0.9c0.1,0.7,0.2,1.4,0.3,2.1C217.9,113.2,217,113.8,216.6,114.1z M231.2,112.2
			c-0.3,1.6-0.5,2.8-0.8,3.6c-0.6,1.9-1.2,3.5-1.9,4.9c-0.7,1.4-1.6,3-2.6,4.5c-0.8,1.3-2,2.7-3.3,4.1c-2.4,2.3-4.5,3.4-6.5,3.4
			h-0.3c-0.4,0-0.8-0.1-1.3-0.2c-1.6-0.7-2.3-1.9-2.3-3.7c0-2,0.9-4.2,2.8-6.6c0.8-1.1,2.1-2.3,3.8-3.8c3.8-3.1,8-5.3,12.5-6.6
			C231.2,112.1,231.2,112.2,231.2,112.2z"/>
		<path class="st1" d="M255.3,107.9c-0.8,0-2,0.9-3.7,2.9c-0.5-0.9-0.9-1.9-1.4-3c3.4-3.7,3.8-4.8,3.8-5.3v-0.1
			c0-0.5-0.3-1.2-1.7-1.2h-0.2c-1,0-1.8,0.1-2.5,0.4c-1.3,0.5-2,1.5-2,2.9c0,0.8,0.2,1.8,0.7,3.1c-3.5,3.8-5.2,6.3-5.2,7.7v0.2
			c0,0.2,0,0.4,0.2,0.6c0.6,0.9,1.3,1.3,2.3,1.3c1.4,0,3.3-1.2,5.8-3.7c0.7,1.4,1.2,2.5,1.2,3.3v0.3c0,0,0,0.2,0,0.4l0,0.1l0.1,0.1
			c0.2,0.3,0.5,0.4,0.9,0.4h0.2c0.6,0,1-0.3,1-0.9v-0.2c0-0.2,0-0.5-0.1-0.8c-0.2-0.6-0.9-1.9-2-3.9c1.3-1.6,2.2-2.6,2.6-3
			c0,0.1,0.1,0.3,0.1,0.5l0,0.6c0.1,0.3,0.3,0.6,1,0.6c0.2,0,0.4,0,0.5-0.1c0.2,0,0.4-0.2,0.5-0.7c0-0.4-0.1-0.7-0.2-1.1
			C256.7,108.3,256.1,107.9,255.3,107.9z M249.5,104.2c0.3-1.2,1.1-1.7,2.6-1.8v0c0,0.2-0.2,0.9-2.4,3.5c-0.1-0.5-0.2-0.9-0.2-1.2
			C249.5,104.6,249.5,104.4,249.5,104.2z M245.7,115.8c-0.2,0-0.5-0.1-0.6-0.6v-0.1c0-0.6,0.7-2.2,4-5.9c0.4,0.9,0.9,1.8,1.4,2.8
			C247.6,115.1,246.3,115.8,245.7,115.8z"/>
		<path class="st1" d="M314.8,95.5c0-0.1,0-0.1,0-0.2c-0.2-0.5-0.5-0.6-0.8-0.6h0c-0.4,0-0.9,0.4-1.5,1.2c-1.2,1.8-2.5,4.8-3.9,9
			c0,0.1-0.3,0.6-1.9,3.1c-0.4-1.1-0.9-1.7-1.6-1.7c-0.8,0-1.6,0.7-2.5,2.1c-0.6,1-1,1.9-1.4,2.8c-0.3,0.4-0.6,0.8-0.9,1.2
			c-1.9,2.2-3.4,3.3-4.5,3.3c-0.4,0-0.8-0.1-0.8-1.1c0-0.9,0.4-2.2,1.1-4c0.5-1.1,0.7-1.7,0.8-1.9l0-0.1c0-0.1,0-0.1-0.1-0.2l0-0.1
			l-0.1,0c-0.3-0.2-0.6-0.3-0.8-0.3h-0.1c-0.3,0-0.5,0.1-0.8,0.4l-0.1,0v0.1c0,0-0.1,0.2-0.7,0.8c-0.7-1.3-1.3-2-2.1-2h-0.2
			c-0.5,0-0.9,0.2-1.3,0.6c-0.6,0.6-1.1,1.1-1.4,1.6c-0.1,0.1-0.1,0.2-0.2,0.3c-0.9,0.5-1.8,0.8-2.6,0.8c-1.6,0-2.9-1.1-3.9-3.2
			c-0.2-0.8-0.6-1-1-1h-0.2c-0.6,0-1.3,0.5-2.4,1.7c-0.6,0.9-1.2,1.7-1.7,2.5c0.4-1.5,0.6-2.5,0.6-3.2c0-0.2-0.1-0.5-0.8-0.6
			c-0.3,0-0.6,0.2-0.9,0.4l-0.1,0.1v0.1c0,0.5-0.2,1.4-0.5,2.7c-0.1,0.1-0.2,0.2-0.3,0.4c-6,9-8.6,10.9-9.8,10.9
			c-0.1,0-0.2,0-0.4-0.1c-1.1-0.4-1.6-1.3-1.6-2.8v-0.3c0-2.3,1-5.9,3.1-10.7c2.4-5.6,3.6-8.5,4.1-9.5c5.6-0.4,9.4-0.6,11.4-0.6
			c1.7,0,2.8,0.1,3.4,0.4c0.1,0.2,0.4,0.5,1,0.5c0.4,0,0.7-0.1,0.8-0.4l0-0.1v-0.1c0-0.1-0.1-0.3-0.2-0.5l0-0.1
			c-0.7-0.6-2.4-0.9-5.1-0.9c-2.7,0-6.3,0.2-10.8,0.5c0.7-1.8,1-2.9,1-3.4c0-0.4-0.6-0.5-0.8-0.6h-0.3c-0.2,0-0.4,0.1-0.6,0.2
			l-0.1,0.1l0,0.1c-0.2,1.1-0.6,2.3-1.2,3.7c-4.1,0.3-7,0.5-8.5,0.5c-0.7,0-1.2,0-1.6-0.1c-0.3-0.2-0.5-0.4-0.8-0.4h-0.2
			c-0.4,0-0.7,0.1-0.8,0.4l0,0.2c0,0.7,1.2,1.1,4,1.1c1.2,0,3.6-0.1,7.4-0.4c-0.3,0.7-0.7,1.8-1.4,3.2c-3.6,7.9-5.4,13.5-5.4,16.5
			c0,1.2,0.2,2.2,0.7,3c0.8,1,1.6,1.4,2.5,1.4h0.3c2.2,0,5.1-2.6,8.9-8c-0.5,1.6-0.5,2.2-0.5,2.4c0,0.1,0.1,0.6,0.7,0.6h0.1
			c0.3,0,0.7-0.2,1.1-0.7c0.4-0.7,1.6-2.6,3.4-5.8c0.6-1.1,1.3-2.1,2-2.9c1.3,2.5,3,3.7,5.1,3.7c0.6,0,1.2-0.1,1.7-0.2
			c-0.8,1.5-1.3,2.5-1.3,3.2v0.1c0,0.3,0.1,0.8,1,0.9h0.1c0.4,0,1-0.2,1.8-0.6c0.9-0.5,2.1-1.4,3.7-2.9c-0.3,0.9-0.4,1.6-0.4,2.2
			c0,0.6,0.1,1,0.3,1.5c0.5,0.7,1.2,1,2.1,1c1.3,0,2.8-0.8,4.4-2.3c0,0.2-0.1,0.4-0.1,0.6c0,0.2,0,0.3,0.1,0.5
			c0.2,0.7,0.7,0.8,1.1,0.8c0.3,0,0.8-0.2,2.1-1.5c1-1.1,1.9-2.2,2.8-3.4c0.1,0.1,0.3,0.1,0.5,0.1h0.1c0,0,0,0,0,0
			c-0.9,3.5-1.4,6.2-1.4,8v0.2c0,0.6,0.1,1.2,0.2,1.8c0.3,1.1,0.9,1.7,1.8,1.7h0.2c0.5,0,0.8-0.1,0.9-0.4l0-0.1v-0.1
			c0-0.2-0.1-0.5-0.8-0.5h-0.2c0,0-0.1,0-0.2,0c-0.4-0.2-0.6-0.9-0.6-2v-0.1c0-2.7,1.2-7.6,3.5-14.7c0,0,0.1-0.3,0.8-1.4
			c2.5-4.4,3.8-7.1,3.9-8.4V95.5z M288.4,114.4c0.1-0.3,0.4-1,1.5-2.5c0.8-1.1,1.5-2.1,2.1-2.8c0.3,0.4,0.6,1.1,0.8,1.8
			C291,112.5,289.5,113.7,288.4,114.4z M302.9,113.5c-0.9,1.2-1.4,1.6-1.5,1.7c0-0.3,0.2-0.8,0.8-2.2c0.7-1.5,1.5-2.8,2.2-4
			c0.2-0.3,0.4-0.5,0.5-0.6c0.1,0.1,0.3,0.4,0.5,1.7C304.6,111.3,303.8,112.4,302.9,113.5z"/>
		<path class="st1" d="M324.9,109.3c0-0.1-0.1-0.4-0.7-0.4h-0.1c-0.2,0-0.3,0.1-0.5,0.2l-0.1,0.1c-0.1,0.3-0.5,0.7-0.9,1.1
			c-0.9,0.9-1.7,1.6-2.5,2.2c-2.7,2-4.8,3-6,3c-0.5,0-0.7-0.2-0.7-0.8c0-0.6,0.2-1.5,0.7-2.6c1.1,0,2-0.4,2.6-1.1
			c0.6-0.8,0.9-1.5,0.9-2.3c0-0.1,0-0.1,0-0.2c-0.2-0.6-0.6-1-1.3-1h0c-1.1,0-2.2,0.9-3.3,2.6c-1,1.8-1.4,3.1-1.4,4.1v0.3
			c0,0.2,0,0.5,0.2,0.8c0.4,0.8,1.1,1.3,2.1,1.3c1.4,0,3.1-0.7,5.2-2c1-0.6,2.2-1.5,3.7-2.8c1.6-1.5,1.9-2,2-2.2l0,0L324.9,109.3z
			 M315.5,109.8c0,0.1-0.1,0.1-0.1,0.2c-0.1,0.1-0.1,0.2-0.2,0.3C315.3,110.1,315.4,109.9,315.5,109.8z"/>
	</g>
</g>
</svg>
