<?xml version="1.0" encoding="utf-8"?>
<!-- Generator: Adobe Illustrator 25.0.1, SVG Export Plug-In . SVG Version: 6.00 Build 0)  -->
<svg version="1.1" id="Layer_1" xmlns="http://www.w3.org/2000/svg" xmlns:xlink="http://www.w3.org/1999/xlink" x="0px" y="0px"
	 viewBox="0 0 1451.3 1451.3" style="enable-background:new 0 0 1451.3 1451.3;" xml:space="preserve">
<style type="text/css">
	.st0{fill:#D91C5C;}
</style>
<g>
	<path class="st0" d="M466.6,756.7c-25.5,29.2-40.2,52.9-43.6,70.2c0.4,17.7,18.1,37.2,52.5,58c24.5-61,53.4-132.2,86.3-211.7
		C533.2,694.1,501.2,722.1,466.6,756.7z"/>
	<path class="st0" d="M725.7,0.1C325,0.1,0,324.9,0,725.7c0,256.5,133.1,481.8,333.9,610.9c10.8-70.9,46.2-191.5,105.7-359.7
		c15.1-36.5,20.4-51.7,22.4-58.1c-56.9-32-84.6-61.7-84.6-90.6v-3.2c9.6-49.3,57.2-106.2,145.6-175.1c53.7-37.6,67.3-48.1,70.3-50.9
		C657.9,443.9,706.5,307,738,192.3c9.7-33.3,18-74.5,24.8-122.7l0.3-1.9l1.2-1.5c6-8,15.3-12,27.8-12l0.9,0.1
		c7.9,0.9,28.9,3.5,28.9,17.6c-1.6,61.8-36.4,181.6-106.6,366.1l-48.9,116.4c158.2-91.4,271.8-158.8,337.9-200.5
		c42.5-26.9,80.6-59.2,113.5-95.8c4.4-7.2,12.7-11.5,22.9-11.5h4.5c12.5,0,19.1,6,22.3,10.9l1.2,1.9l-0.4,6.1
		c-6.8,18.3-34.2,45.3-83.5,83C984.1,418.3,873.6,485.6,756.2,549c-62.8,37.3-103.1,62.6-119.8,74.7
		c-38.1,86.2-78.9,181.3-121.4,283.1c67.8,32.9,196.4,84.2,382.5,152.4c137.8,53.2,219.3,97.8,249.4,136.3c2.8,2,6,6.5,11.9,16.9
		l0.9,1.7v6.4c0,9.7-12.4,12.1-17.7,13.1l-8.5,0.1c-6.4,0-15.1-4-34.9-33.2c-44-33.7-96.5-62.8-156.3-86.3
		c-49.6-20.7-171.6-67.6-362.8-139.6l-78.5-35.3c-56.5,133.2-98.6,265.3-125.2,392.9c-1.9,9.3-3.5,18.1-4.4,26.6
		c104.9,58.9,225.7,92.3,354.3,92.3c400.6,0,725.6-324.8,725.6-725.6C1451.3,324.9,1126.4,0.1,725.7,0.1z"/>
</g>
</svg>
