<?xml version="1.0" encoding="utf-8"?>
<!-- Generator: Adobe Illustrator 25.0.1, SVG Export Plug-In . SVG Version: 6.00 Build 0)  -->
<svg version="1.1" id="Layer_1" xmlns="http://www.w3.org/2000/svg" xmlns:xlink="http://www.w3.org/1999/xlink" x="0px" y="0px"
	 viewBox="0 0 841.9 280.9" style="enable-background:new 0 0 841.9 280.9;" xml:space="preserve">
<style type="text/css">
	.st0{fill:#FFFFFF;}
	.st1{fill:#D91C5C;}
</style>
<g>
	<g>
		<polygon class="st0" points="307,46.7 286.8,46.7 238.8,95.8 238.8,46.7 222.8,46.7 222.8,153.3 238.8,153.3 238.8,102.2 
			288.9,153.3 309.2,153.3 255.9,99 		"/>
		<path class="st0" d="M353.1,44.6c-14.6,0-26.8,5.2-36.6,15.5c-9.7,10.3-14.6,23.6-14.6,40c0,16.4,4.9,29.7,14.6,40
			c9.7,10.3,21.9,15.5,36.6,15.5c14.6,0,26.8-5.2,36.6-15.5c9.7-10.3,14.6-23.6,14.6-40c0-16.3-4.9-29.7-14.6-40
			C379.9,49.7,367.8,44.6,353.1,44.6z M378.2,129.2c-6.8,7.5-15.1,11.3-25.1,11.3c-10,0-18.3-3.8-25.1-11.3
			c-6.8-7.5-10.1-17.3-10.1-29.2s3.4-21.7,10.1-29.2c6.8-7.5,15.1-11.3,25.1-11.3c10,0,18.3,3.8,25.1,11.3
			c6.7,7.5,10.1,17.3,10.1,29.2S384.9,121.7,378.2,129.2z"/>
		<path class="st0" d="M502.2,26.4h-16v20.3h-17.1h0H451c-5.4,0-9.5,0.9-12.3,2.6c-2.8,1.7-5.4,4.4-8,8.1h-1.1l-2.1-10.7h-13.9
			v106.6h16V85.1c0-7.5,2-13.3,6.1-17.4c4.1-4.1,9.8-6.1,17.4-6.1h16h0h17.1v73.6c0,5.5,1.7,10,5.1,13.2c3.4,3.3,8.1,4.9,14.1,4.9
			h21.3v-14.9h-18.1c-4.3,0-6.4-2.1-6.4-6.4V61.6h24.5V46.7h-24.5V26.4z"/>
		<path class="st0" d="M582.4,44.6c-14.6,0-26.8,5.2-36.6,15.5c-9.7,10.3-14.6,23.6-14.6,40c0,16.4,4.9,29.7,14.6,40
			c9.7,10.3,21.9,15.5,36.6,15.5c11.1,0,20.6-2.8,28.5-8.3c7.9-5.5,13.7-13.4,17.4-23.7h-17.1c-2.7,5.4-6.6,9.6-11.6,12.6
			c-5,3-10.8,4.5-17.2,4.5c-9.1,0-17-3-23.6-9.1c-6.6-6-10.5-14-11.6-24h83.2l0.4-2.6c0.4-3.8,0.6-6.9,0.6-9.2
			c0-14.8-4.7-27-14-36.7C608.1,49.4,596.5,44.6,582.4,44.6z M547.2,92.6c1.1-9.8,4.9-17.8,11.3-23.9c6.4-6.1,14.4-9.2,23.9-9.2
			c9.1,0,16.7,3.1,22.9,9.3c6.2,6.2,9.6,14.1,10.1,23.8H547.2z"/>
		<path class="st0" d="M714.6,46.7l-29.9,88.5h-4.3l-33.1-88.5h-17.1l43.7,115.2l-4.3,12.8c-1.4,4.3-3.9,6.4-7.5,6.4h-20.3V196h21.3
			c5.7,0,10-1.2,13-3.5c3-2.3,5.4-6.2,7.3-11.4l48-134.4H714.6z"/>
		<path class="st0" d="M806.9,55.2c-7.4-7.1-17.6-10.7-30.5-10.7c-12.7,0-22.8,3.2-30.4,9.7c-7.6,6.5-11.7,14.3-12.3,23.4h16
			c0.6-5.1,3.2-9.4,8-12.9c4.8-3.5,11-5.2,18.7-5.2c8.1,0,14.4,2.2,18.9,6.7c4.5,4.5,6.7,10.8,6.7,18.9v3.2h-28.8
			c-14.4,0-25.1,3-32.1,9.1c-7,6-10.6,14.4-10.6,25.1c0,9.8,3.4,17.8,10.3,23.9c6.9,6.1,15.9,9.2,27,9.2c10.4,0,18.8-2.5,25.4-7.5
			c3.1-2.1,5.7-4.6,7.7-7.5h1.1l2.1,12.8H818V85.1C818,72.3,814.3,62.3,806.9,55.2z M802,107.5c0,10.2-3,18.3-9.1,24.2
			c-6,5.9-14.4,8.9-25.1,8.9c-6.8,0-12.1-1.6-15.8-4.9c-3.7-3.3-5.5-7.7-5.5-13.2c0-5.7,2.2-10.3,6.5-13.9
			c4.3-3.6,11.1-5.3,20.2-5.3H802V107.5z"/>
	</g>
	<g>
		<path class="st0" d="M477.3,200.6c1.4-2.7,3.4-6.2,6.1-10.2c3.8-5.6,5.6-9.4,5.6-11.4c0-1.7-0.9-2.9-2.6-3.6
			c-2.7-0.8-5.8-1.3-9.2-1.3h-0.1c-9.2,0-19,3-29,9c-3.3,2-6.9,4.6-10.6,7.6c-2.7,2.2-5.9,5.3-9.4,9.3c-7.6,9.1-11.5,17-11.5,23.3
			v0.6c0,2.3,0.8,4.5,2.3,6.5c1.9,2.1,7,3.2,15.6,3.2c2.9,0,5.7-0.1,8.5-0.2c7.7-0.4,12.3-0.6,13.9-0.6h0.6c1.9,0,3.9,0.1,5.7,0.4
			c3.4,0.6,5.2,1.7,5.2,3.2c0,1.4-0.6,3.2-1.7,5.4c-1.3,3.2-4.5,7.9-9.6,13.8c-6.9,7.5-12,11.4-15.2,11.4c0,0-0.1-0.1-0.2-0.8v-0.5
			c0-1.5,0.7-4.7,2-9.3l4.7-14.2l0-0.4l-0.1-0.1c-0.3-0.4-0.7-0.7-1.2-0.7H447c-0.5,0-1.4,0.2-1.7,1.6c-4.3,11.2-6.5,18.6-6.5,22.4
			c0,0.8,0.1,1.5,0.3,2.2c0.5,1.3,1.4,1.9,2.6,1.9c4,0,9.3-3.6,16.4-11c3.3-3.8,6-7.2,7.9-10.2c3-4.8,4.7-8.7,5-11.7
			c0-0.5-0.2-1.1-0.5-2c-1.5-2.6-5.9-3.8-13.3-3.8c-0.5,0-1.3,0-2.3,0.1c-8.5,0.5-15.2,0.8-19.8,0.8c-6.8,0-11-0.5-12.5-1.6
			c-1.5-1.4-2.2-3.5-2.2-6c0-5.2,2.7-11.5,8.1-18.7c1.3-1.9,3.9-4.8,7.7-8.7c3.6-3.4,6.7-6,9.3-7.8c11.2-7.8,21.8-11.8,31.5-11.8
			c2.2,0.1,4,0.2,5.2,0.4c3.1,0.3,3.1,1.6,3.1,2c0,0.9-0.3,1.9-0.9,3.1l0,0.2c-0.1,0.3-0.8,1.8-4.9,8.3c-6.5,9.5-9.8,17.7-9.8,24.3
			c0,0.3,0,0.6,0.1,0.9c0,1,0.6,1.5,1.5,1.5h0.7c0.4,0,0.8-0.2,1.3-0.6l0.2-0.1v-0.2c0-0.5,0-1-0.1-1.5
			C473.4,210.5,474.7,205.8,477.3,200.6z"/>
		<path class="st0" d="M592,222.2l0.2,0c0.2,0,0.3,0,0.5,0c0.4,0,0.8-0.1,1.1-0.3c0.8-0.5,1.3-1.1,1.4-1.9l0-0.1
			c0.1-0.2,0.1-0.4,0-0.8c-0.2-1-0.9-1.6-1.8-1.8l-0.2,0c-0.3-0.1-0.6,0-1,0.1c-0.9,0.3-1.5,1-1.7,2l0,0.2c0,0.3-0.1,0.6,0,0.9
			C590.6,221.7,591.4,222.1,592,222.2z"/>
		<path class="st0" d="M673.6,224.8c-2.8,0-7.1,0.6-12.7,1.6c0-0.8-0.2-1.7-0.4-2.7c-1-3.3-3.1-4.9-6.4-4.9c-3.6,0-8.4,2.4-14.6,7.3
			c-0.4-2.9-1.4-4.4-3.2-4.4c-1.1,0-2.6,1-4.7,3.2c0,0-0.1,0.1-0.1,0.1c-0.1,0-0.1,0-0.2,0l-0.2,0.1l-0.1,0.2
			c-0.2,0.4-0.5,0.9-0.8,1.3c-0.7,0.8-1.3,1.6-1.9,2.4c-3.4,3.4-6.4,5.2-8.8,5.2c-2.2,0-3.9-1.9-5-5.6c-0.7-3.2-1.9-4.8-3.6-4.8
			c-0.8,0-1.5,0.3-2.3,0.9c0.4-1.5,0.7-2.8,0.9-4.1c0-1-1.5-1.1-1.9-1.1l0,0c-0.4,0-0.9,0.1-1.3,0.4l-0.1,0.1l-0.1,0.1
			c-0.1,0.3-0.8,1.2-2.9,4c-7.5,9.5-11.1,11.6-12.8,11.6h-0.6c-0.2,0-0.8,0-1-1.5v-0.5c0-1.3,0.5-3.1,1.6-5.6l1.6-3.5l0-0.3
			c0-0.9-1.3-1-1.8-1.1h-0.3c-0.4,0-0.8,0.1-1.3,0.4l-0.1,0.1c-0.3,0.4-0.4,0.8-0.7,1.2h-0.6c-3.5,0-7.1,0.5-10.6,1.6
			c0.4-1.5,0.7-2.7,0.7-3.7c0-2.7-1.4-4.2-4-4.2h-0.4c-2.6,0-5.6,2.2-9,6.7c-2.9,4.1-5.7,9.1-8.4,14.8c3.6-11.1,5.3-17.5,5.3-19.6
			l0-0.1c0-0.1,0-0.3,0-0.4v-0.4l-0.1-0.2c-0.2-0.4-0.7-0.7-1.5-0.7c-0.6,0-1.1,0.3-1.6,0.9l-0.1,0.1v0.5c0,1-0.2,2.6-0.7,4.6h-0.6
			c-3.5,0-7.1,0.5-10.6,1.6c0.4-1.5,0.7-2.7,0.7-3.7c0-2.7-1.4-4.2-4-4.2H542c-2.6,0-5.6,2.2-9,6.7c-2.9,4.1-5.7,9.1-8.4,14.8
			c3.6-11.1,5.3-17.5,5.3-19.6l0-0.1c0-0.1,0-0.3,0-0.4v-0.4l-0.1-0.2c-0.2-0.4-0.7-0.7-1.5-0.7c-0.6,0-1.1,0.3-1.6,0.9l-0.1,0.1
			v0.5c0,1.1-0.3,2.7-0.7,4.8c-1.9,0.8-4.5,1.2-7.8,1.3c0-0.3,0-0.7-0.1-1c-0.6-2.3-2.2-3.6-4.7-3.6h-0.6c-2.5,0-3.3,1.5-3.6,2.8
			c0,0-0.1,0.2-0.4,0.6c-0.3,0.2-0.9,0.8-2.9,2.9c-6.7,6.2-9.5,7.5-10.7,7.5h-0.2c-0.2,0-0.3-0.7-0.3-0.9c0-1,0.3-2.4,0.9-4.2
			c1.5-4.4,2.3-7.2,2.3-8.6c0-1.6-0.9-2.5-2.6-2.6c-1.8,0-4.1,1.5-7,4.7c-2.4,2.7-4.7,5.4-6.6,8c0.8-1.9,1.7-4,2.6-6.2
			c8.5-18.6,12.6-29.3,12.6-32.7c0-0.8-1.2-1.1-1.8-1.2h-0.3c-0.6,0-1.1,0.2-1.5,0.7l-0.1,0.1v0.2c0,0.5-0.2,1.7-1.1,4.6
			c-1.4,4.6-3.1,9.2-5.1,13.8c-4.6,10.7-7.6,17.9-9,21.3c-3.5,9.6-3.5,10.8-3.5,11.2v0.1l0.1,0.1c0.3,0.4,0.8,0.7,1.5,0.7
			c0.5,0,1-0.2,1.3-0.5l0.1-0.2c0.5-1.2,1.2-2.6,2.1-3.9c2.6-4.3,6.2-9.1,10.6-14.1c1.5-1.6,2.9-3,4.4-4.2c0,0.8-0.3,2.2-0.8,4
			c-1.4,4.2-2,7-2,8.4v0.2c0,0.6,0.1,1.1,0.3,1.6c0.6,1.2,1.7,1.7,3.2,1.7c2.9,0,6.7-2.2,11.5-6.5c-0.1,0.6-0.1,1.2-0.1,1.8
			c0,0.7,0.1,1.5,0.4,2.5c0.6,1.6,1.7,2.4,3.4,2.4h0.5c1.2,0,2.6-0.9,4.4-2.9c1.7-2.4,2.8-4.6,3-6.4c1.7,0,3.7-0.2,6-0.5
			c0.5-0.1,1-0.2,1.4-0.3c-0.9,3.3-2.2,7.6-4,12.8c-3.6,10.7-5.4,16.9-5.4,19.1v0.4c0,1.4,0.9,1.8,1.5,2c0.8,0,1.6-0.8,2.4-2.5
			c3.3-8.7,6.2-15.5,8.5-20.4c5.7-12.2,10.4-18.4,14.1-18.4c0.2,0,0.7,0,0.7,1.5c0,1.8-0.5,3.7-1.4,5.8l-3.6,2.1
			c-4.3,3.2-6.4,5.9-6.4,8.4c0,0.3,0,0.6,0.1,0.8c0.6,1.8,1.8,2.2,2.7,2.2h0.2c1,0,2.1-0.6,3.5-1.8c2.7-2.9,4.9-6.5,6.6-10.5
			c3.5-1.4,7.4-2.1,11.7-2.2c-0.9,3.5-2.3,8-4.1,13.5c-3.6,10.7-5.4,16.9-5.4,19.1v0.4c0,1.4,0.9,1.8,1.5,2c0.8,0,1.6-0.8,2.4-2.5
			c3.3-8.7,6.2-15.5,8.5-20.4c5.7-12.2,10.4-18.4,14.1-18.4c0.2,0,0.7,0,0.7,1.5c0,1.8-0.5,3.7-1.4,5.8l-3.6,2.1
			c-4.3,3.2-6.4,5.9-6.4,8.4c0,0.3,0,0.6,0.1,0.8c0.6,1.8,1.8,2.2,2.7,2.2h0.2c1,0,2.1-0.6,3.5-1.8c2.7-2.9,4.9-6.5,6.6-10.5
			c3.3-1.3,7-2,11.1-2.1c-1.1,2.3-1.7,4.4-1.7,6v0.5c0,0.2,0.1,0.6,0.2,1.2c0.7,1.9,2.2,2.9,4.2,2.9c3.7,0,8.5-3.6,14.4-10.9
			c-2.2,6.8-3.3,11.3-3.3,13.7c0,0.4,0.2,1.2,1.5,1.3l0.4,0c0.3,0,0.8-0.1,1-0.3c0.5-0.2,1-1.1,1.8-3.7c3-8.5,4.4-11,4.9-11.6
			c0.1,0.4,0.3,0.9,0.6,1.6c1.3,5.6,4,8.5,8.2,8.5h0.2c1.9,0,3.9-0.6,6.2-1.7c0,0,0,0.1,0,0.1v0.3l0,0.1c0.2,0.7,0.8,1.4,2.3,1.4
			c2,0,5.1-1.7,9.5-5.3c0.2,0.1,0.5,0.1,0.8,0.1c0.8,0,1.4-0.2,1.8-0.7l0.1-0.1v-0.2c0-0.2-0.1-0.6-0.2-1.1c6.7-5.5,11.4-8.3,14-8.3
			c0.8,0,3.2,0,3.2,6.2v0.1c-10.9,3-20.3,7.9-28.1,14.8c-7.6,7.1-11.4,13.7-11.4,19.6c0,2.3,0.6,4.4,1.9,6.1c2.1,2.6,4.7,3.9,8,3.9
			h0.9c3.5,0,7.4-1.5,11.4-4.3c1-0.6,2.9-2.2,5.8-5.2c2.6-3,4.6-5.7,6.1-8c2.4-3.8,4.6-8.4,6.6-13.6c1.6-5.1,2.5-9,2.6-11.7
			c0.5-0.1,0.8-0.2,1-0.3c5.1-0.9,8.3-1.4,9.7-1.4c2.5-0.1,3.5-0.4,3.5-1.2C675.1,225.5,674.8,225,673.6,224.8z M513.8,230.9
			c-2,4.2-3.2,4.9-3.7,4.9c-0.2,0-0.4-0.5-0.4-1.6v-0.4c0-1.9,0.5-4,1.4-6.3c1.4,0.5,2.6,0.7,3.6,0.8
			C514.4,229.4,514.1,230.3,513.8,230.9z M512.3,225.6l0.1-0.1v-0.6l-0.1-0.1c0-0.1-0.1-0.2-0.2-0.3c0.2-0.7,0.6-0.7,0.7-0.7
			c0.3,0.1,0.6,0.1,0.8,0.2c0.8,0.4,1.2,1.1,1.2,2.2C513.1,226,512.5,225.7,512.3,225.6z M537.5,236.1c-1.5,2.6-2.3,3.2-2.6,3.2
			l-0.1,0c0,0-0.2-0.1-0.3-0.8c0-1.1,0.8-2.5,2.2-4.2c1.1-1.1,2.2-2,3.1-2.7C539.2,233.1,538.4,234.6,537.5,236.1z M568.7,236.1
			c-1.5,2.6-2.3,3.2-2.6,3.2l-0.1,0c0,0-0.2-0.1-0.3-0.8c0-1.1,0.8-2.5,2.2-4.2c1.1-1.1,2.2-2,3.1-2.7
			C570.4,233.1,569.6,234.6,568.7,236.1z M629,234.2c0.3-0.9,1.2-2.5,3.3-5.4c0.2-0.2,0.4-0.5,0.5-0.7c0.4-0.5,0.7-0.9,1.1-1.5
			c0.7-0.9,1.2-1.4,1.5-1.7c0.1,1.4,0.3,2.7,0.5,4C631.7,232.4,629.8,233.7,629,234.2z M656.9,230.5c-0.5,3-1,5.3-1.5,6.8
			c-1.1,3.6-2.3,6.7-3.6,9.3c-1.3,2.7-3,5.6-5,8.6c-1.6,2.5-3.7,5.1-6.3,7.9c-4.5,4.3-8.6,6.5-12.3,6.5h-0.6c-0.8,0-1.6-0.2-2.5-0.4
			c-3-1.3-4.4-3.6-4.4-7.1c0-3.7,1.8-7.9,5.2-12.5c1.5-2,3.9-4.5,7.2-7.3c7.2-5.8,15.2-10,23.8-12.5
			C656.9,230.4,656.9,230.5,656.9,230.5z"/>
		<path class="st0" d="M702.8,222.4c-1.6,0-3.8,1.8-7,5.5c-0.9-1.8-1.8-3.7-2.6-5.8c6.4-7.1,7.1-9.2,7.1-10.1v-0.2
			c0-1-0.6-2.3-3.3-2.3h-0.3c-1.8,0-3.4,0.3-4.8,0.8c-2.6,1-3.8,2.8-3.8,5.4c0,1.6,0.4,3.5,1.4,5.8c-6.6,7.2-9.9,12-9.9,14.6v0.3
			c0,0.3,0.1,0.7,0.3,1.2c1.1,1.6,2.6,2.5,4.4,2.5c2.8,0,6.3-2.3,10.9-6.9c1.4,2.7,2.2,4.7,2.4,6.2v0.6c0,0.1,0,0.4-0.1,0.8l0,0.2
			l0.1,0.2c0.3,0.5,0.9,0.7,1.7,0.7h0.3c1.2,0,1.8-0.6,1.8-1.7v-0.3c0-0.4-0.1-0.9-0.3-1.5c-0.4-1.2-1.6-3.6-3.7-7.3
			c2.6-3,4.2-4.9,5-5.8c0.1,0.2,0.1,0.5,0.2,0.9l0,1.1c0.1,0.5,0.5,1.2,1.9,1.2c0.3,0,0.7,0,1-0.2c0.4-0.1,0.8-0.4,0.9-1.4
			c0-0.7-0.1-1.4-0.4-2.1C705.4,223.2,704.3,222.4,702.8,222.4z M691.7,215.4c0.5-2.2,2.1-3.3,4.9-3.4v0.1c0,0.3-0.5,1.6-4.7,6.6
			c-0.2-0.9-0.3-1.7-0.3-2.3C691.6,216.1,691.7,215.8,691.7,215.4z M684.5,237.4c-0.5,0-1-0.1-1.1-1.1v-0.2c0-1.2,1.3-4.2,7.6-11.2
			c0.8,1.6,1.7,3.4,2.7,5.3C688.1,236.1,685.6,237.4,684.5,237.4z"/>
		<path class="st0" d="M815.9,198.8c0-0.1,0-0.3-0.1-0.4c-0.4-1-1-1.2-1.5-1.2h-0.1c-0.9,0-1.8,0.7-2.8,2.3
			c-2.3,3.5-4.8,9.2-7.3,17.1c0,0.2-0.5,1.1-3.5,5.9c-0.7-2.1-1.7-3.2-3-3.2c-1.5,0-3.1,1.3-4.8,4.1c-1.1,2-2,3.7-2.7,5.3
			c-0.5,0.7-1.1,1.5-1.7,2.3c-3.7,4.2-6.5,6.3-8.5,6.3c-0.7,0-1.6-0.2-1.6-2.1c0-1.6,0.7-4.2,2.1-7.7c0.9-2.1,1.4-3.2,1.5-3.6l0-0.1
			c0-0.1-0.1-0.3-0.2-0.5l-0.1-0.1l-0.1-0.1c-0.6-0.4-1.1-0.6-1.6-0.6h-0.2c-0.5,0-1,0.3-1.5,0.8l-0.1,0v0.2c0,0.1-0.2,0.4-1.4,1.6
			c-1.3-2.6-2.6-3.8-3.9-3.8h-0.3c-0.9,0-1.7,0.4-2.6,1.1c-1.2,1.1-2,2.2-2.6,3c-0.1,0.2-0.2,0.3-0.3,0.5c-1.7,1-3.4,1.5-4.9,1.5
			c-3,0-5.5-2.1-7.5-6.1c-0.4-1.6-1.2-2-1.8-2h-0.3c-1.1,0-2.5,1-4.5,3.2c-1.2,1.7-2.3,3.3-3.3,4.8c0.7-2.8,1.1-4.8,1.1-6.1
			c0-0.5-0.3-1-1.6-1.2c-0.5,0-1.1,0.3-1.7,0.8l-0.2,0.1v0.2c0,0.9-0.3,2.7-0.9,5.1c-0.2,0.2-0.3,0.4-0.5,0.8
			c-11.4,17.1-16.4,20.7-18.7,20.7c-0.2,0-0.5,0-0.7-0.1c-2-0.8-3-2.5-3-5.2V242c0-4.3,2-11.2,5.8-20.3c4.6-10.7,6.9-16.2,7.7-18.1
			c10.7-0.8,17.9-1.2,21.6-1.2c3.2,0,5.4,0.2,6.5,0.7c0.3,0.5,0.8,1,1.8,1c0.8,0,1.3-0.2,1.6-0.7l0.1-0.1v-0.3
			c0-0.3-0.1-0.5-0.4-0.9l-0.1-0.1c-1.4-1.1-4.5-1.7-9.7-1.7c-5.1,0-12,0.3-20.5,1c1.3-3.5,2-5.6,2-6.4c0-0.8-1.1-1-1.6-1.1H733
			c-0.3,0-0.7,0.1-1.1,0.4l-0.2,0.1l0,0.2c-0.4,2.1-1.2,4.5-2.2,7c-7.8,0.6-13.2,0.9-16.2,0.9c-1.3,0-2.3-0.1-3-0.2
			c-0.5-0.5-1-0.7-1.5-0.7h-0.3c-0.8,0-1.3,0.2-1.6,0.7l-0.1,0.3c0,1.4,2.3,2,7.6,2c2.3,0,6.9-0.2,14.1-0.7
			c-0.5,1.2-1.4,3.3-2.6,6.2c-6.9,15-10.3,25.6-10.3,31.4c0,2.3,0.5,4.1,1.4,5.6c1.4,1.8,3.1,2.8,4.8,2.8h0.5c4.2,0,9.7-5,17-15.2
			c-0.9,3.1-1,4.1-1,4.5c0,0.3,0.1,1.2,1.4,1.2h0.2c0.6,0,1.3-0.4,2-1.4c0.8-1.2,3-5,6.4-11.1c1.2-2.1,2.5-3.9,3.8-5.5
			c2.4,4.7,5.7,7,9.8,7c1.2,0,2.3-0.2,3.3-0.4c-1.6,2.8-2.4,4.8-2.5,6.1v0.2c0,0.5,0.2,1.5,1.8,1.7h0.3c0.8,0,1.9-0.4,3.4-1.2
			c1.7-0.9,4-2.7,7.1-5.5c-0.5,1.7-0.7,3.1-0.7,4.3c0,1.1,0.2,2,0.6,2.8c0.9,1.3,2.3,2,4.1,2c2.5,0,5.3-1.5,8.4-4.4
			c-0.1,0.4-0.2,0.8-0.2,1.2c0,0.3,0,0.6,0.1,1c0.5,1.3,1.3,1.6,2,1.6c0.5,0,1.6-0.3,4-2.8c1.9-2.1,3.6-4.3,5.3-6.5
			c0.3,0.1,0.6,0.2,1,0.2h0.3c0,0,0,0,0,0c-1.7,6.6-2.6,11.7-2.6,15.3v0.4c0,1.2,0.1,2.3,0.4,3.4c0.6,2.1,1.8,3.2,3.5,3.2h0.4
			c0.9,0,1.5-0.2,1.8-0.7l0.1-0.1v-0.3c0-0.4-0.2-0.9-1.4-1h-0.5c-0.1,0-0.2,0-0.4-0.1c-0.8-0.4-1.2-1.8-1.2-3.9v-0.2
			c0-5,2.3-14.4,6.7-28c0-0.1,0.2-0.5,1.6-2.7c4.8-8.4,7.2-13.6,7.3-16V198.8z M765.7,234.7c0.2-0.6,0.8-1.9,2.8-4.8
			c1.5-2.2,2.8-4,4-5.4c0.6,0.8,1.1,2,1.6,3.5C770.5,231.2,767.7,233.5,765.7,234.7z M793.3,233.1c-1.8,2.2-2.6,3-2.9,3.2
			c0-0.5,0.3-1.6,1.4-4.1c1.3-2.9,2.8-5.4,4.2-7.6c0.5-0.7,0.7-0.9,0.9-1.1c0.2,0.2,0.6,0.8,1,3.3
			C796.5,228.9,794.9,231,793.3,233.1z"/>
		<path class="st0" d="M835.1,225.2c-0.1-0.2-0.3-0.8-1.2-0.8h-0.2c-0.3,0-0.7,0.1-1,0.3l-0.1,0.2c-0.3,0.5-0.9,1.2-1.7,2.2
			c-1.7,1.6-3.3,3-4.7,4.1c-5.2,3.8-9,5.7-11.3,5.7c-1,0-1.3-0.4-1.3-1.4c0-1.2,0.4-2.9,1.3-5c2.1,0,3.8-0.8,5-2.2
			c1.2-1.4,1.8-2.9,1.8-4.3c0-0.1,0-0.2,0-0.4c-0.3-1.2-1.1-1.8-2.4-1.8H819c-2.1,0-4.2,1.7-6.3,5c-1.8,3.3-2.7,5.9-2.7,7.8v0.5
			c0,0.5,0.1,1,0.3,1.5c0.7,1.6,2,2.4,4.1,2.4c2.6,0,5.9-1.3,9.9-3.7c1.9-1.1,4.3-2.9,7.1-5.4c3-2.9,3.6-3.8,3.8-4.2l0-0.1
			L835.1,225.2z M817.2,226c-0.1,0.1-0.1,0.3-0.2,0.4c-0.1,0.2-0.3,0.4-0.4,0.6C816.8,226.7,817,226.3,817.2,226z"/>
	</g>
	<g>
		<path class="st1" d="M65.6,104.7c-3.2,3.7-5.1,6.7-5.5,8.9c0.1,2.2,2.3,4.7,6.6,7.3c3.1-7.7,6.7-16.7,10.9-26.7
			C74,96.8,70,100.3,65.6,104.7z"/>
		<path class="st1" d="M98.3,9.2c-50.6,0-91.6,41-91.6,91.6c0,32.4,16.8,60.8,42.1,77.1c1.4-8.9,5.8-24.2,13.3-45.4
			c1.9-4.6,2.6-6.5,2.8-7.3c-7.2-4-10.7-7.8-10.7-11.4v-0.4c1.2-6.2,7.2-13.4,18.4-22.1c6.8-4.7,8.5-6.1,8.9-6.4
			C89.8,65.2,95.9,48,99.9,33.5c1.2-4.2,2.3-9.4,3.1-15.5l0-0.2l0.2-0.2c0.8-1,1.9-1.5,3.5-1.5l0.1,0c1,0.1,3.6,0.4,3.6,2.2
			c-0.2,7.8-4.6,22.9-13.5,46.2l-6.2,14.7c20-11.5,34.3-20,42.6-25.3c5.4-3.4,10.2-7.5,14.3-12.1c0.6-0.9,1.6-1.4,2.9-1.4h0.6
			c1.6,0,2.4,0.8,2.8,1.4l0.2,0.2l-0.1,0.8c-0.9,2.3-4.3,5.7-10.5,10.5C130.9,62,117,70.5,102.2,78.5c-7.9,4.7-13,7.9-15.1,9.4
			c-4.8,10.9-10,22.9-15.3,35.7c8.6,4.2,24.8,10.6,48.3,19.2c17.4,6.7,27.7,12.3,31.5,17.2c0.4,0.3,0.8,0.8,1.5,2.1l0.1,0.2v0.8
			c0,1.2-1.6,1.5-2.2,1.6l-1.1,0c-0.8,0-1.9-0.5-4.4-4.2c-5.5-4.3-12.2-7.9-19.7-10.9c-6.3-2.6-21.7-8.5-45.8-17.6l-9.9-4.5
			c-7.1,16.8-12.4,33.5-15.8,49.6c-0.2,1.2-0.4,2.3-0.6,3.4c13.2,7.4,28.5,11.7,44.7,11.7c50.6,0,91.6-41,91.6-91.6
			C189.9,50.2,148.9,9.2,98.3,9.2z"/>
	</g>
</g>
</svg>
